<svg width="20" height="24" viewBox="0 0 20 24" fill="none" xmlns="http://www.w3.org/2000/svg">
<path d="M17.7757 7.55868C17.7276 6.98094 17.4868 6.45135 17.1017 6.0662C16.7165 5.68104 16.211 5.44032 15.6092 5.44032H14.3334V4.333C14.3334 3.12939 13.8519 2.04614 13.0575 1.27583C12.2632 0.481444 11.1799 0 10.0004 0C8.79676 0 7.71351 0.481444 6.9432 1.27583C6.14882 2.04614 5.66737 3.12939 5.66737 4.333V5.44032H4.39155C3.78974 5.44032 3.28422 5.68104 2.89907 6.0662C2.51391 6.45135 2.27319 6.98094 2.22505 7.55868L0.949219 21.8094C0.949219 21.8816 0.949219 21.9539 0.949219 21.9779C0.949219 22.5075 1.16587 23.013 1.55102 23.3741C1.91211 23.7111 2.39355 23.9519 2.89907 24H2.92314C2.99536 24 3.06757 24 3.11572 24H16.885C16.9332 24 17.0054 24 17.0776 24C17.6072 23.9519 18.0886 23.7111 18.4497 23.3741C18.8349 23.013 19.0515 22.5075 19.0515 21.9539C19.0515 21.9057 19.0515 21.8576 19.0515 21.7854L17.7757 7.55868ZM6.99134 4.333C6.99134 3.49047 7.32836 2.74423 7.88202 2.19057C8.43568 1.63691 9.18192 1.2999 10.0244 1.2999C10.867 1.2999 11.6132 1.63691 12.1669 2.19057C12.7205 2.74423 13.0575 3.49047 13.0575 4.333V5.44032H6.99134V4.333ZM17.7035 21.9779C17.7035 22.1705 17.6313 22.339 17.4868 22.4594C17.3424 22.6038 17.1257 22.7001 16.9332 22.7242C16.9332 22.7242 16.9091 22.7242 16.861 22.7242H3.11572C3.06757 22.7242 3.0435 22.7242 3.0435 22.7242H3.01943C2.80278 22.7001 2.6102 22.6038 2.46577 22.4594C2.32133 22.339 2.24912 22.1705 2.24912 21.9779V21.9057L3.52495 7.67904C3.54902 7.41424 3.66938 7.17352 3.83788 7.00502C3.98232 6.86058 4.1749 6.76429 4.39155 6.76429H5.66737V9.7011C5.66737 10.0622 5.95624 10.3511 6.31732 10.3511C6.67841 10.3511 6.96727 10.0622 6.96727 9.7011V6.76429H12.9853V9.7011C12.9853 10.0622 13.2742 10.3511 13.6353 10.3511C13.9964 10.3511 14.2852 10.0622 14.2852 9.7011V6.76429H15.5611C15.7777 6.76429 15.9703 6.86058 16.1147 7.00502C16.2832 7.17352 16.4036 7.41424 16.4277 7.67904L17.7035 21.9298V21.9779Z" fill="#FFAC00"/>
</svg>
