<svg width="34" height="34" viewBox="0 0 34 34" fill="none" xmlns="http://www.w3.org/2000/svg">
<path d="M25.3341 12.0007H8.66742C8.22539 12.0007 7.80147 12.1762 7.48891 12.4888C7.17635 12.8014 7.00075 13.2253 7.00075 13.6673C7.00075 14.1093 7.17635 14.5333 7.48891 14.8458C7.80147 15.1584 8.22539 15.334 8.66742 15.334H25.3341C25.7761 15.334 26.2 15.1584 26.5126 14.8458C26.8252 14.5333 27.0008 14.1093 27.0008 13.6673C27.0008 13.2253 26.8252 12.8014 26.5126 12.4888C26.2 12.1762 25.7761 12.0007 25.3341 12.0007ZM18.6674 18.6673H8.66742C8.22539 18.6673 7.80147 18.8429 7.48891 19.1555C7.17635 19.468 7.00075 19.892 7.00075 20.334C7.00075 20.776 7.17635 21.1999 7.48891 21.5125C7.80147 21.8251 8.22539 22.0007 8.66742 22.0007H18.6674C19.1094 22.0007 19.5334 21.8251 19.8459 21.5125C20.1585 21.1999 20.3341 20.776 20.3341 20.334C20.3341 19.892 20.1585 19.468 19.8459 19.1555C19.5334 18.8429 19.1094 18.6673 18.6674 18.6673ZM17.0008 0.333984C14.8121 0.333984 12.6448 0.765081 10.6227 1.60266C8.6006 2.44024 6.76328 3.6679 5.21564 5.21554C2.09003 8.34115 0.334087 12.5804 0.334087 17.0007C0.319516 20.8492 1.65207 24.5816 4.10075 27.5507L0.76742 30.884C0.536157 31.1184 0.379497 31.416 0.317207 31.7393C0.254916 32.0626 0.289788 32.3971 0.41742 32.7007C0.55585 33.0005 0.78026 33.2525 1.06216 33.4246C1.34407 33.5967 1.67075 33.6812 2.00075 33.6673H17.0008C21.421 33.6673 25.6603 31.9114 28.7859 28.7858C31.9115 25.6602 33.6674 21.4209 33.6674 17.0007C33.6674 12.5804 31.9115 8.34115 28.7859 5.21554C25.6603 2.08993 21.421 0.333984 17.0008 0.333984ZM17.0008 30.334H6.01742L7.56742 28.784C7.87784 28.4717 8.05207 28.0493 8.05207 27.609C8.05207 27.1687 7.87784 26.7463 7.56742 26.434C5.38506 24.2541 4.02604 21.3849 3.7219 18.3153C3.41777 15.2457 4.18732 12.1657 5.89947 9.59986C7.61161 7.03405 10.1604 5.14125 13.1116 4.24394C16.0628 3.34663 19.2339 3.50033 22.0844 4.67884C24.935 5.85736 27.2888 7.98778 28.7448 10.7071C30.2008 13.4265 30.6689 16.5666 30.0693 19.5923C29.4697 22.6181 27.8396 25.3424 25.4567 27.3011C23.0737 29.2597 20.0854 30.3316 17.0008 30.334Z" fill="white"/>
</svg>
