<svg width="60" height="75" viewBox="0 0 60 75" fill="none" xmlns="http://www.w3.org/2000/svg">
<path d="M59.9997 73.0636H57.5997V33.3178L47.5797 23.0171H34.7197V20.6016H48.5797L59.9997 32.3397V73.0636Z" fill="#0068AB"/>
<path d="M60 75H0V57.2332H2.4V72.6045H57.6V57.2332H60V75Z" fill="#0068AB"/>
<path d="M2.4 73.0636H0V20.6016H25.04V23.0171H2.4V73.0636Z" fill="#0068AB"/>
<path d="M47.7801 56.774H14.3201V59.1696H47.7801V56.774Z" fill="#008EC5"/>
<path d="M47.7801 44.8962H14.3201V47.2917H47.7801V44.8962Z" fill="#008EC5"/>
<path d="M31.2005 2.89459H28.8005V33.3977H31.2005V2.89459Z" fill="#FFAC00"/>
<path d="M40.4803 14.3532L30.0003 3.47352L19.5203 14.3532L17.8003 12.6763L30.0003 0L42.2203 12.6763L40.4803 14.3532Z" fill="#FFAC00"/>
</svg>
