<svg width="60" height="75" viewBox="0 0 60 75" fill="none" xmlns="http://www.w3.org/2000/svg">
<path d="M29.6415 0H25.6753V2.4642H29.6415V0Z" fill="#008EC5"/>
<path d="M59.9999 52.4431H57.5316V12.7422L47.5316 2.4642H34.7046V0H48.5653L59.9999 11.7523V52.4431Z" fill="#0068AB"/>
<path d="M60 54.4019H0V36.6259H2.46835V51.9377H57.5316V36.6259H60V54.4019Z" fill="#0068AB"/>
<path d="M2.46835 52.4431H0V0H21.8776V2.4642H2.46835V52.4431Z" fill="#0068AB"/>
<path d="M45.6548 15.7961H12.2371V18.2603H45.6548V15.7961Z" fill="#008EC5"/>
<path d="M45.6548 27.6748H12.2371V30.139H45.6548V27.6748Z" fill="#008EC5"/>
<path d="M31.222 41.5754H28.7537V72.0514H31.222V41.5754Z" fill="#FFAC00"/>
<path d="M29.9994 75L17.7842 62.2999L19.5563 60.5939L29.9994 71.4406L40.4424 60.5939L42.2146 62.2999L29.9994 75Z" fill="#FFAC00"/>
</svg>
