<svg width="60" height="68" viewBox="0 0 60 68" fill="none" xmlns="http://www.w3.org/2000/svg">
<path d="M45.0239 10.8448H14.9778V13.0431H45.0239V10.8448Z" fill="#009B95"/>
<path d="M45.0239 21.4515H14.9778V23.6498H45.0239V21.4515Z" fill="#009B95"/>
<path d="M34.6212 30.7209H14.9778V32.9192H34.6212V30.7209Z" fill="#009B95"/>
<path d="M29.6592 0H26.0994V2.19828H29.6592V0Z" fill="#FFAC00"/>
<path d="M56.9752 46.9149H54.7619V11.3944L45.761 2.19828H34.2332V0H46.7016L56.9752 10.5151V46.9149Z" fill="#009B95"/>
<path d="M5.23873 47.153H3.02539V0H22.6872V2.19828H5.23873V47.153Z" fill="#009B95"/>
<path d="M34.934 54.4989H25.0662V56.6972H34.934V54.4989Z" fill="#009B95"/>
<path d="M46.4061 68C38.9176 68 32.8125 61.9547 32.8125 54.4989C32.8125 47.0431 38.8992 40.9978 46.4061 40.9978C53.913 40.9978 59.9997 47.0431 59.9997 54.4989C59.9997 61.9547 53.913 68 46.4061 68ZM46.4061 43.2144C40.135 43.2144 35.0443 48.2705 35.0443 54.4989C35.0443 60.7274 40.135 65.7834 46.4061 65.7834C52.6772 65.7834 57.7679 60.7274 57.7679 54.4989C57.7679 48.2705 52.6772 43.2144 46.4061 43.2144Z" fill="#009B95"/>
<path d="M13.5936 68C6.08669 68 0 61.9364 0 54.4989C0 47.0614 6.08669 40.9978 13.5936 40.9978C21.1005 40.9978 27.1872 47.0431 27.1872 54.4989C27.1872 61.9547 21.0821 68 13.5936 68ZM13.5936 43.2144C7.32247 43.2144 2.23179 48.2705 2.23179 54.4989C2.23179 60.7274 7.32247 65.7834 13.5936 65.7834C19.8647 65.7834 24.9554 60.7274 24.9554 54.4989C24.9554 48.2705 19.8463 43.2144 13.5936 43.2144Z" fill="#009B95"/>
</svg>
