<svg width="71" height="63" viewBox="0 0 71 63" fill="none" xmlns="http://www.w3.org/2000/svg">
<path d="M70.1998 14.9498L43.6608 0.192718C43.1985 -0.0642395 42.6379 -0.0642395 42.1757 0.192718L32.1958 5.74203C31.9704 5.80551 31.76 5.92209 31.5816 6.08322L15.6366 14.9498C15.143 15.2245 14.8362 15.7494 14.8362 16.3194V19.514H-2.96582C-3.81807 19.514 -4.50879 20.2141 -4.50879 21.0765C-4.50879 21.9395 -3.81807 22.639 -2.96582 22.639H14.8362V28.264H5.99003C5.13778 28.264 4.44706 28.9641 4.44706 29.8265C4.44706 30.6895 5.13778 31.389 5.99003 31.389H14.8362V39.514H1.87524C1.02299 39.514 0.332275 40.2141 0.332275 41.0765C0.332275 41.9395 1.02299 42.639 1.87524 42.639H14.8362V45.8342C14.8362 46.4043 15.143 46.9292 15.6366 47.2038L42.1757 61.9609C42.4071 62.0897 42.6627 62.1538 42.9182 62.1538C43.1738 62.1538 43.4293 62.0897 43.6608 61.9609L70.1998 47.2038C70.6935 46.9292 71.0002 46.4043 71.0002 45.8342V38.8371C71.0002 37.9747 70.3095 37.2746 69.4573 37.2746C68.605 37.2746 67.9143 37.9747 67.9143 38.8371V44.9095L44.4612 57.9509V32.0012L51.9199 27.8539V34.4359C51.9199 34.9889 52.208 35.5003 52.6775 35.7811C52.9192 35.9258 53.191 35.9984 53.4628 35.9984C53.7184 35.9984 53.9745 35.9343 54.2066 35.8049L59.8939 32.6353C60.3863 32.3607 60.6925 31.8364 60.6925 31.2663V22.9759L67.9143 18.9604V26.3371C67.9143 27.2002 68.605 27.8996 69.4573 27.8996C70.3095 27.8996 71.0002 27.2002 71.0002 26.3371V16.3194C71.0002 15.7494 70.6935 15.2245 70.1998 14.9498ZM41.3752 57.9509L17.9221 44.9095V18.9604L41.3752 32.0012V57.9509ZM42.9182 29.2943L19.585 16.3194L26.9184 12.2417L50.2521 25.2165L42.9182 29.2943ZM53.458 23.4337L30.1242 10.4588L32.6539 9.05258L55.987 22.0274L53.458 23.4337ZM57.6066 30.3429L55.0058 31.7924V26.1382L57.6066 24.6916V30.3429ZM59.1929 20.2446L35.8597 7.26974L42.9182 3.34518L66.2514 16.3194L59.1929 20.2446Z" fill="#009B95"/>
</svg>
