<svg width="79" height="60" viewBox="0 0 79 60" fill="none" xmlns="http://www.w3.org/2000/svg">
<path d="M78.449 39.028V39.0013C78.1793 37.4329 77.6936 35.9115 77.0056 34.4811C77.0075 34.4622 77.003 34.4434 76.9928 34.4277C68.5694 8.12109 67.165 5.97461 66.6929 5.26823C63.767 0.801432 54.8054 0.667969 53.7951 0.667969C53.0705 0.667969 52.483 1.26497 52.483 2.0013C52.483 2.73763 53.0705 3.33464 53.7951 3.33464C56.1572 3.33464 62.6778 3.94792 64.5146 6.73438C65.0656 7.58789 66.8242 11.6413 72.3082 28.4811C69.2965 26.0085 65.5397 24.6621 61.6675 24.668C56.1617 24.6745 50.9973 27.3809 47.7991 31.9349C45.5235 29.7533 42.4893 28.5781 39.3623 28.668C36.2307 28.5749 33.1914 29.75 30.9126 31.9349C28.202 28.0553 24.0357 25.4857 19.398 24.832C14.7609 24.1784 10.0636 25.4987 6.41629 28.4811C11.9003 11.6413 13.659 7.58789 14.2099 6.73438C16.0467 3.94792 22.568 3.33464 24.9295 3.33464C25.6541 3.33464 26.2415 2.73763 26.2415 2.0013C26.2415 1.26497 25.6541 0.667969 24.9295 0.667969C23.9191 0.667969 14.9576 0.801432 12.0317 5.26823C11.5595 5.97461 10.1558 8.12109 1.73178 34.4277C1.73178 34.4414 1.71897 34.4544 1.71897 34.4811C1.0309 35.9115 0.54528 37.4329 0.275562 39.0013V39.028C0.0968171 40.0091 0.00456195 41.0039 7.73209e-05 42.0013C-0.0210644 49.1634 4.29507 55.6009 10.8612 58.2025C17.4273 60.804 24.8923 59.0339 29.6467 53.7474C34.4016 48.4609 35.4677 40.7474 32.3297 34.3346C34.1069 32.306 36.6926 31.2031 39.3623 31.3346C42.0325 31.2031 44.6176 32.306 46.3948 34.3346C43.2773 40.7428 44.3524 48.4388 49.1022 53.7109C53.8521 58.9837 61.3017 60.75 67.8569 58.1589C74.4128 55.5671 78.7296 49.1497 78.7245 42.0013C78.72 41.0039 78.6277 40.0091 78.449 39.028ZM17.057 56.668C9.08593 56.668 2.62422 50.1016 2.62422 42.0013C2.62422 33.901 9.08593 27.3346 17.057 27.3346C25.0281 27.3346 31.4898 33.901 31.4898 42.0013C31.4847 50.0996 25.0262 56.6628 17.057 56.668ZM61.6675 56.668C53.6964 56.668 47.2347 50.1016 47.2347 42.0013C47.2347 33.901 53.6964 27.3346 61.6675 27.3346C69.6386 27.3346 76.1003 33.901 76.1003 42.0013C76.0952 50.0996 69.6367 56.6628 61.6675 56.668Z" fill="#009B95"/>
</svg>
