<svg width="74" height="75" viewBox="0 0 74 75" fill="none" xmlns="http://www.w3.org/2000/svg">
<path d="M66.5958 21.0918H65.0417L44.7088 0.429462C44.1459 -0.14256 43.233 -0.14256 42.6703 0.429462L37.4613 5.72297L16.6284 0.0503602C15.8593 -0.159259 15.0688 0.304657 14.8628 1.08615L9.58816 21.0918H6.05508C2.71688 21.0918 0.000976562 23.8516 0.000976562 27.244C0.000976562 27.3253 0.00400368 27.406 0.00703081 27.4866C0.00371539 27.5269 0.000976562 27.5673 0.000976562 27.6085V67.676C0.000976563 71.7143 3.23423 75 7.20826 75H58.8119C58.8342 75 58.8562 74.9985 58.8785 74.9982H66.5956C70.5697 74.9982 73.8028 71.7127 73.8028 67.6741V28.4157C73.8029 24.3772 70.5698 21.0918 66.5958 21.0918ZM65.308 24.0214H66.5958C68.9803 24.0214 70.9201 25.9927 70.9201 28.4157V40.1554C70.9201 42.0698 69.3874 43.6273 67.5036 43.6273H66.0192V37.7904C66.0192 33.803 62.8668 30.5519 58.9618 30.4702L65.308 24.0214ZM38.9115 8.3925C38.9116 8.39235 38.9117 8.39206 38.9119 8.39191L43.6897 3.53669L62.5394 22.6919L54.9356 30.4189H52.2985L55.7477 26.9137C56.3106 26.3417 56.3106 25.4141 55.7477 24.8421C54.5808 23.6563 54.5808 21.7271 55.7477 20.5413C56.3106 19.9693 56.3106 19.0418 55.7477 18.4696L47.8443 10.4384C47.2814 9.86643 46.3687 9.86643 45.8057 10.4384C44.6388 11.6244 42.7402 11.6244 41.5735 10.4384C41.0106 9.86643 40.0977 9.86643 39.5349 10.4384L19.873 30.4191H17.236L38.9115 8.3925ZM34.6693 24.9156C31.3787 24.9156 28.6217 27.2768 27.9492 30.4191H23.9498L40.6806 13.4172C42.5273 14.5358 44.8518 14.5358 46.6985 13.4172L52.8163 19.6341C51.7157 21.5106 51.7157 23.8731 52.8163 25.7496L48.2213 30.4191H41.3894C40.7169 27.2767 37.9601 24.9156 34.6693 24.9156ZM38.3863 30.4191H30.9529C31.5378 28.9136 32.9829 27.8453 34.6696 27.8453C36.3563 27.8453 37.8012 28.9136 38.3863 30.4191ZM15.7125 27.8241L19.5298 13.3466C20.5765 13.3637 21.6177 13.0922 22.5501 12.5447C23.4828 11.9976 24.2332 11.2196 24.7437 10.2876L31.2311 12.054L21.8166 21.6211L15.7125 27.8241ZM17.2746 3.25925L35.1074 8.11491L33.585 9.66208L24.2687 7.12526C23.8992 7.02463 23.5059 7.07736 23.1749 7.2716C22.8438 7.46584 22.6022 7.78576 22.5033 8.16105C22.2963 8.94562 21.8012 9.60143 21.1089 10.0076C20.4166 10.4138 19.6101 10.5216 18.8379 10.3114C18.0691 10.102 17.2785 10.5657 17.0725 11.3472L12.031 30.4665H10.1006L17.2746 3.25925ZM6.05508 24.0214H8.81538L7.11587 30.4665H6.05493C4.30626 30.4665 2.88381 29.0209 2.88381 27.244C2.88395 25.467 4.3067 24.0214 6.05508 24.0214ZM70.9201 67.6741C70.9201 70.0973 68.9801 72.0685 66.5958 72.0685H64.5751C65.4814 70.8439 66.0192 69.3227 66.0192 67.6759V61.7907H66.8841C68.3896 61.7907 69.7831 61.2981 70.9201 60.4652V67.6741ZM70.9201 54.7598C70.9201 57.0214 69.1094 58.8612 66.8841 58.8612H36.6137C33.2755 58.8612 30.5596 56.1014 30.5596 52.709C30.5596 49.3166 33.2754 46.5568 36.6137 46.5568H40.9823C41.7784 46.5568 42.4238 45.9008 42.4238 45.092C42.4238 44.2831 41.7784 43.6271 40.9823 43.6271H36.6137C31.6859 43.6271 27.6768 47.7011 27.6768 52.7089C27.6768 57.7166 31.6859 61.7906 36.6137 61.7906H63.1364V67.6758C63.1364 70.0762 61.2323 72.0337 58.8786 72.0701H9.8028V55.5747C9.8028 54.7658 9.15744 54.1098 8.36131 54.1098C7.56518 54.1098 6.91982 54.7658 6.91982 55.5747V72.0594C4.66937 71.9081 2.88381 70.0005 2.88381 67.676V32.4817C3.80679 33.0609 4.89295 33.3961 6.05493 33.3961H58.8118C61.1963 33.3961 63.1361 35.3675 63.1361 37.7904V43.6273H52.7137C51.9176 43.6273 51.2722 44.2832 51.2722 45.0921C51.2722 45.901 51.9176 46.557 52.7137 46.557H67.5036C68.7625 46.557 69.9353 46.1783 70.9201 45.5294V54.7598Z" fill="#009B95"/>
</svg>
