<svg width="28" height="18" viewBox="0 0 28 18" fill="none" xmlns="http://www.w3.org/2000/svg">
<path d="M28 10.009H26.3594V7.39163C26.3594 5.35616 24.7035 3.70023 22.668 3.70023H20.514L19.3714 0.585938H8.62854L7.4859 3.70023H5.33198C3.29651 3.70023 1.64057 5.35616 1.64057 7.39163V10.009H0V11.6496H1.64057V13.72C1.64057 15.7555 3.29651 17.4114 5.33198 17.4114H11.1386L12.7793 15.862H15.2207L16.8615 17.4114H22.6681C24.7035 17.4114 26.3595 15.7555 26.3595 13.72V11.6496H28V10.009ZM9.77424 2.22656H18.2258L18.7665 3.70023H9.23355L9.77424 2.22656ZM24.7188 13.72C24.7188 14.8508 23.7989 15.7708 22.668 15.7708H17.5136L15.8729 14.2213H12.1271L10.4864 15.7708H5.33198C4.20115 15.7708 3.2812 14.8508 3.2812 13.72V7.39163C3.2812 6.2608 4.20115 5.34085 5.33198 5.34085H22.668C23.7989 5.34085 24.7188 6.2608 24.7188 7.39163V13.72Z" fill="white"/>
</svg>
